# xmcd
#
# Track frame offsets:
#	150
#	13164
#	25483
#	39118
#	51289
#	59123
#	70073
#	82112
#	95244
#	106231
#	118397
#	131469
#	141111
#	153844
#	163640
#	174254
#	185235
#	195693
#	208529
#	220286
#	229716
#	238481
#	249570
#	258160
#	269602
#	277812
#	287868
#	297056
#	305625
#
# Disc length: 4175 seconds
#
# Revision: 2
# Processed by: cddbd v1.5.2PL0 Copyright (c) Steve Scherf et al.
# Submitted via: EasyCDDAExtractor 15.3.0.1
#
DISCID=c1104d1d
DTITLE=Donna Loren - These Are The Good Times - The Complete Capitol Recording
DTITLE=s
DYEAR=1966
DGENRE=USA Iskelmä
TTITLE0=Just A Little Bit  (Mono 45rpm)
TTITLE1=Woman In Love (With You)
TTITLE2=Donna Loren and Beau Brummels_It's Gotta Be  (Previously Unreleased)
TTITLE3=Call Me  (Mono 45rpm)
TTITLE4=So, Do The Zonk  (Mono 45rpm)
TTITLE5=You Can't Lose Something You Never Had  (Previously Unreleased)
TTITLE6=They're Jealous Of Me  (Previously Unreleased)
TTITLE7=That's The Boy
TTITLE8=My Way  (Previously Unreleased)
TTITLE9=Hold Your Head High  (Previously Unreleased)
TTITLE10=Good Things  (Previously Unreleased)
TTITLE11=Smokey Joe's  (Mono 45rpm)
TTITLE12=Play Little Music Box, Play  (Mono 45rpm)
TTITLE13=Leave Him To Me  (Previously Unreleased)
TTITLE14=Ten Good Reasons
TTITLE15=Ninety Day Guarantee  (Mono 45rpm)
TTITLE16=I Believe  (Mono 45rpm)
TTITLE17=Blowing Out The Candles  (Mono 45rpm)
TTITLE18=Drop The Drip  (Previously Unreleased)
TTITLE19=Cycle Set
TTITLE20=I Think, You Think
TTITLE21=It Only Hurts When I Cry
TTITLE22=These Are The Good Times
TTITLE23=I'll Never Change Him
TTITLE24=Fly Boy
TTITLE25=New Love
TTITLE26=I Am My Ideal
TTITLE27=Beach Blanket Bingo
TTITLE28=Freeway
EXTD=
EXTT0=
EXTT1=
EXTT2=
EXTT3=
EXTT4=
EXTT5=
EXTT6=
EXTT7=
EXTT8=
EXTT9=
EXTT10=
EXTT11=
EXTT12=
EXTT13=
EXTT14=
EXTT15=
EXTT16=
EXTT17=
EXTT18=
EXTT19=
EXTT20=
EXTT21=
EXTT22=
EXTT23=
EXTT24=
EXTT25=
EXTT26=
EXTT27=
EXTT28=
PLAYORDER=
